# xmcd CD database file
#
# Track frame offsets:
#	150
#	45713
#	69432
#	106205
#	136825
#	176024
#	205776
#	246063
#
# Disc length: 3765 seconds
#
# Revision: 0
# Processed by: cddbd v1.5.2PL0 Copyright (c) Steve Scherf et al.
# Submitted via: CDex 1.70beta2
#
DISCID=680eb308
DTITLE=Solid and Seamus Blake - Visitor
DYEAR=2011
DGENRE=Jazz
TTITLE0=Insert witty title
TTITLE1=Moving on
TTITLE2=Weeks on end
TTITLE3=Writer's block
TTITLE4=Rules of etiquette
TTITLE5=Chasing Fanshawe
TTITLE6=Fresh fruit
TTITLE7=Here we go
EXTD=YEAR: 2011
EXTT0=
EXTT1=
EXTT2=
EXTT3=
EXTT4=
EXTT5=
EXTT6=
EXTT7=
PLAYORDER=
